<svg width="32" height="32" viewBox="0 0 32 32" fill="none" xmlns="http://www.w3.org/2000/svg">
<path d="M15.036 20.5002L3.52176 0.556814C3.3229 0.212306 2.95543 0 2.55771 0L1.11305 0C0.498547 0 0 0.498556 0 1.11307L0 30.8869C0 31.5014 0.498547 32 1.11305 32H13.37C13.7677 32 14.1352 31.7877 14.3341 31.4432L20.4421 20.8637C20.8706 20.1215 21.9417 20.1215 22.3702 20.8637L28.4782 31.4432C28.6771 31.7877 29.0446 32 29.4423 32H30.887C31.5015 32 32 31.5014 32 30.8869V1.11307C32 0.498556 31.5015 0 30.887 0L29.4423 0C29.0446 0 28.6771 0.212306 28.4782 0.556814L16.964 20.5007C16.5355 21.243 15.4645 21.243 15.036 20.5007V20.5002Z" fill="white"/>
</svg>
